<?xml version="1.0" encoding="UTF-8" standalone="no"?>
<svg width="64" height="64" viewBox="0 0 64 64" xmlns="http://www.w3.org/2000/svg">
  <!-- Background -->
  <linearGradient id="bg_gradient" x1="0%" y1="0%" x2="100%" y2="100%">
    <stop offset="0%" style="stop-color:#1976D2;stop-opacity:1" />
    <stop offset="100%" style="stop-color:#0D47A1;stop-opacity:1" />
  </linearGradient>
  <rect x="0" y="0" width="64" height="64" rx="14" ry="14" fill="url(#bg_gradient)" />
  
  <!-- Calendar Icon -->
  <g transform="translate(12, 12) scale(0.8)">
    <!-- Calendar Outline -->
    <rect x="4" y="4" width="42" height="42" rx="4" ry="4" fill="white" />
    
    <!-- Calendar Header -->
    <rect x="4" y="4" width="42" height="10" rx="4" ry="4" fill="#FF9800" />
    
    <!-- Calendar Grid Lines -->
    <line x1="14" y1="20" x2="14" y2="46" stroke="#E0E0E0" stroke-width="1" />
    <line x1="24" y1="20" x2="24" y2="46" stroke="#E0E0E0" stroke-width="1" />
    <line x1="34" y1="20" x2="34" y2="46" stroke="#E0E0E0" stroke-width="1" />
    
    <line x1="4" y1="26" x2="46" y2="26" stroke="#E0E0E0" stroke-width="1" />
    <line x1="4" y1="32" x2="46" y2="32" stroke="#E0E0E0" stroke-width="1" />
    <line x1="4" y1="38" x2="46" y2="38" stroke="#E0E0E0" stroke-width="1" />
    
    <!-- Selected Day -->
    <circle cx="29" cy="35" r="6" fill="#1976D2" />
    <text x="29" y="38" font-family="Arial, sans-serif" font-size="8" font-weight="bold" fill="white" text-anchor="middle">15</text>
    
    <!-- Calendar Dates -->
    <text x="9" y="24" font-family="Arial, sans-serif" font-size="6" fill="#757575" text-anchor="middle">1</text>
    <text x="19" y="24" font-family="Arial, sans-serif" font-size="6" fill="#757575" text-anchor="middle">2</text>
    <text x="29" y="24" font-family="Arial, sans-serif" font-size="6" fill="#757575" text-anchor="middle">3</text>
    <text x="39" y="24" font-family="Arial, sans-serif" font-size="6" fill="#757575" text-anchor="middle">4</text>
    
    <text x="9" y="30" font-family="Arial, sans-serif" font-size="6" fill="#757575" text-anchor="middle">5</text>
    <text x="19" y="30" font-family="Arial, sans-serif" font-size="6" fill="#757575" text-anchor="middle">6</text>
    <text x="29" y="30" font-family="Arial, sans-serif" font-size="6" fill="#757575" text-anchor="middle">7</text>
    <text x="39" y="30" font-family="Arial, sans-serif" font-size="6" fill="#757575" text-anchor="middle">8</text>
    
    <text x="9" y="36" font-family="Arial, sans-serif" font-size="6" fill="#757575" text-anchor="middle">9</text>
    <text x="19" y="36" font-family="Arial, sans-serif" font-size="6" fill="#757575" text-anchor="middle">10</text>
    
    <text x="9" y="42" font-family="Arial, sans-serif" font-size="6" fill="#757575" text-anchor="middle">13</text>
    <text x="19" y="42" font-family="Arial, sans-serif" font-size="6" fill="#757575" text-anchor="middle">14</text>
    <text x="39" y="42" font-family="Arial, sans-serif" font-size="6" fill="#757575" text-anchor="middle">16</text>
  </g>
  
  <!-- Building Icon Overlay -->
  <g transform="translate(40, 40) scale(0.3)">
    <circle cx="0" cy="0" r="30" fill="#FF5722" />
    <g transform="translate(-15, -15) scale(0.06)">
      <path d="M448 0L320 96v62.06l-83.03 83.03c6.79 4.25 13.27 9.06 19.07 14.87 5.8 5.8 10.62 12.28 14.87 19.07L353.94 192H416l96-128-64-64z" fill="white"/>
    </g>
  </g>
</svg> 