<?xml version="1.0" encoding="UTF-8" standalone="no"?>
<svg width="200" height="60" viewBox="0 0 200 60" xmlns="http://www.w3.org/2000/svg">
  <!-- Background rectangle with rounded corners -->
  <rect x="0" y="0" width="200" height="60" rx="10" ry="10" fill="#1976D2" />
  
  <!-- Building icon -->
  <g transform="translate(15, 15) scale(0.03)">
    <path d="M448 0L320 96v62.06l-83.03 83.03c6.79 4.25 13.27 9.06 19.07 14.87 5.8 5.8 10.62 12.28 14.87 19.07L353.94 192H416l96-128-64-64zM128 278.59L10.92 395.67c-14.55 14.55-14.55 38.15 0 52.71l52.7-52.7L128 278.59zM443.63 412.78L268.7 237.84c-17.42-17.42-45.66-17.42-63.08 0-17.42 17.42-17.42 45.66 0 63.08l174.94 174.93c17.42 17.42 45.66 17.42 63.08 0 17.41-17.42 17.41-45.66-.01-63.07zM80 160h153.37l-14.8-14.8c-10.28-10.28-18.48-22.55-24.05-36.01L160 64 64 160h16zm40 64c-26.51 0-48-21.49-48-48s21.49-48 48-48 48 21.49 48 48-21.49 48-48 48z" fill="white"/>
  </g>
  
  <!-- Text "Room Booking" -->
  <text x="60" y="30" font-family="Arial, sans-serif" font-size="18" font-weight="bold" fill="white">Room Booking</text>
  
  <!-- Text "System" -->
  <text x="60" y="48" font-family="Arial, sans-serif" font-size="14" fill="white">System</text>
  
  <!-- Decorative elements -->
  <circle cx="185" cy="15" r="5" fill="white" opacity="0.5" />
  <circle cx="185" cy="45" r="5" fill="white" opacity="0.5" />
</svg> 